<svg width="100" height="100" viewBox="0 0 100 100" fill="none" xmlns="http://www.w3.org/2000/svg">
<circle cx="50" cy="49.9937" r="49" stroke="#FE9E45" stroke-width="2"/>
<path d="M49.9999 20.8269C33.9174 20.8269 20.8333 33.9111 20.8333 49.9936V62.0773C20.8333 65.064 23.4495 67.4936 26.6666 67.4936H29.5833C30.3568 67.4936 31.0987 67.1863 31.6456 66.6393C32.1926 66.0923 32.4999 65.3505 32.4999 64.5769V49.5765C32.4999 48.8029 32.1926 48.0611 31.6456 47.5141C31.0987 46.9671 30.3568 46.6598 29.5833 46.6598H26.9349C28.5566 35.3723 38.2691 26.6602 49.9999 26.6602C61.7308 26.6602 71.4433 35.3723 73.0649 46.6598H70.4166C69.643 46.6598 68.9012 46.9671 68.3542 47.5141C67.8072 48.0611 67.4999 48.8029 67.4999 49.5765V67.4936C67.4999 70.7107 64.8837 73.3269 61.6666 73.3269H55.8333V70.4102H44.1666V79.1602H61.6666C68.1008 79.1602 73.3333 73.9277 73.3333 67.4936C76.5503 67.4936 79.1666 65.064 79.1666 62.0773V49.9936C79.1666 33.9111 66.0824 20.8269 49.9999 20.8269Z" fill="white"/>
</svg>
