<svg width="100" height="100" viewBox="0 0 100 100" fill="none" xmlns="http://www.w3.org/2000/svg">
<circle cx="49.9946" cy="49.9937" r="49" stroke="#FE9E45" stroke-width="2"/>
<g clip-path="url(#clip0_219_227)">
<path d="M65.5502 41.2437C65.5502 29.1618 54.2335 19.3687 40.2724 19.3687C26.3113 19.3687 14.9946 29.1618 14.9946 41.2437C14.9946 45.929 16.7118 50.2603 19.609 53.819C17.9854 57.9534 15.3009 61.2265 15.262 61.2729C15.1311 61.428 15.0436 61.6228 15.0101 61.8333C14.9767 62.0437 14.9989 62.2606 15.0739 62.4571C15.1489 62.6535 15.2735 62.8209 15.4322 62.9385C15.5909 63.0561 15.7768 63.1187 15.9669 63.1187C20.4123 63.1187 24.1007 61.4438 26.75 59.7034C30.6632 61.8554 35.2922 63.1187 40.2724 63.1187C54.2335 63.1187 65.5502 53.3255 65.5502 41.2437ZM38.328 54.3687V52.1415C36.9559 52.0622 35.6215 51.5235 34.5156 50.5897C34.0417 50.1892 34.0174 49.3907 34.4464 48.93L35.8743 47.3974C36.2109 47.0364 36.7116 47.02 37.1054 47.2976C37.5757 47.6284 38.1092 47.8062 38.6634 47.8062H42.0795C42.8695 47.8062 43.5136 46.9968 43.5136 46.0028C43.5136 45.1894 43.0748 44.4729 42.4478 44.2624L36.979 42.4167C34.7198 41.6538 33.1412 39.2147 33.1412 36.4845C33.1412 33.1321 35.4563 30.4087 38.3267 30.3226V28.1187C38.3267 27.5144 38.7618 27.0249 39.299 27.0249H41.2434C41.7806 27.0249 42.2156 27.5144 42.2156 28.1187V30.3458C43.5877 30.4251 44.9221 30.9624 46.028 31.8976C46.5019 32.2981 46.5262 33.0966 46.0972 33.5573L44.6693 35.0899C44.3326 35.4509 43.832 35.4673 43.4382 35.1897C42.9679 34.8575 42.4344 34.6812 41.8802 34.6812H38.4641C37.6741 34.6812 37.03 35.4905 37.03 36.4845C37.03 37.2979 37.4688 38.0144 38.0958 38.2249L43.5646 40.0706C45.8238 40.8335 47.4024 43.2726 47.4024 46.0028C47.4024 49.3565 45.0873 52.0786 42.2169 52.1647V54.3687C42.2169 54.9729 41.7818 55.4624 41.2446 55.4624H39.3002C38.763 55.4624 38.328 54.9729 38.328 54.3687ZM80.3778 71.3204C83.2774 67.7616 84.9946 63.429 84.9946 58.7437C84.9946 49.5917 78.4941 41.7632 69.2774 38.4997C69.382 39.4021 69.4391 40.3167 69.4391 41.2437C69.4391 55.7181 56.3554 67.4937 40.2724 67.4937C38.9623 67.4937 37.6814 67.3884 36.4163 67.2366C40.2481 75.0993 49.2375 80.6187 59.7169 80.6187C64.6971 80.6187 69.326 79.3554 73.2392 77.2034C75.8885 78.9438 79.5769 80.6187 84.0224 80.6187C84.4113 80.6187 84.7625 80.3575 84.9144 79.9569C85.0688 79.555 84.9946 79.0901 84.7261 78.7716C84.6884 78.7265 82.0014 75.4575 80.3778 71.3204Z" fill="white"/>
</g>
<defs>
<clipPath id="clip0_219_227">
<rect width="70" height="70" fill="white" transform="translate(14.9946 14.9937)"/>
</clipPath>
</defs>
</svg>
