<svg width="100" height="100" viewBox="0 0 100 100" fill="none" xmlns="http://www.w3.org/2000/svg">
<circle cx="50" cy="49.9937" r="49" stroke="#FE9E45" stroke-width="2"/>
<path d="M49.9999 47.0769C53.8677 47.0769 57.577 48.6134 60.3119 51.3483C63.0468 54.0832 64.5833 57.7925 64.5833 61.6602V79.1602H35.4166V61.6602C35.4166 57.7925 36.953 54.0832 39.6879 51.3483C42.4229 48.6134 46.1322 47.0769 49.9999 47.0769ZM30.4233 55.8444C29.9591 57.41 29.6849 59.0258 29.6066 60.6569L29.5833 61.6602V79.1602H20.8333V66.0352C20.8327 63.5198 21.7608 61.0928 23.4397 59.2196C25.1185 57.3464 27.4299 56.1591 29.9303 55.8852L30.4262 55.8444H30.4233ZM69.5766 55.8444C72.1722 56.0026 74.6096 57.1451 76.3917 59.0388C78.1738 60.9326 79.1662 63.4349 79.1666 66.0352V79.1602H70.4166V61.6602C70.4166 59.639 70.1249 57.6877 69.5766 55.8444ZM31.0416 38.3269C32.9755 38.3269 34.8301 39.0951 36.1976 40.4626C37.565 41.83 38.3333 43.6847 38.3333 45.6186C38.3333 47.5524 37.565 49.4071 36.1976 50.7746C34.8301 52.142 32.9755 52.9102 31.0416 52.9102C29.1077 52.9102 27.2531 52.142 25.8856 50.7746C24.5181 49.4071 23.7499 47.5524 23.7499 45.6186C23.7499 43.6847 24.5181 41.83 25.8856 40.4626C27.2531 39.0951 29.1077 38.3269 31.0416 38.3269ZM68.9583 38.3269C70.8921 38.3269 72.7468 39.0951 74.1142 40.4626C75.4817 41.83 76.2499 43.6847 76.2499 45.6186C76.2499 47.5524 75.4817 49.4071 74.1142 50.7746C72.7468 52.142 70.8921 52.9102 68.9583 52.9102C67.0244 52.9102 65.1697 52.142 63.8023 50.7746C62.4348 49.4071 61.6666 47.5524 61.6666 45.6186C61.6666 43.6847 62.4348 41.83 63.8023 40.4626C65.1697 39.0951 67.0244 38.3269 68.9583 38.3269ZM49.9999 20.8269C53.0941 20.8269 56.0616 22.0561 58.2495 24.244C60.4374 26.4319 61.6666 29.3994 61.6666 32.4936C61.6666 35.5878 60.4374 38.5552 58.2495 40.7432C56.0616 42.9311 53.0941 44.1602 49.9999 44.1602C46.9057 44.1602 43.9383 42.9311 41.7503 40.7432C39.5624 38.5552 38.3333 35.5878 38.3333 32.4936C38.3333 29.3994 39.5624 26.4319 41.7503 24.244C43.9383 22.0561 46.9057 20.8269 49.9999 20.8269Z" fill="white"/>
</svg>
