<svg width="100" height="100" viewBox="0 0 100 100" fill="none" xmlns="http://www.w3.org/2000/svg">
<circle cx="49.9949" cy="49.9937" r="49" stroke="#FE9E45" stroke-width="2"/>
<path d="M23.7449 28.4919L50.008 20.8269L76.2449 28.4919V44.2098C76.2449 60.7298 65.672 73.938 49.9992 79.1602C34.3222 73.9394 23.7449 60.7269 23.7449 44.2025V28.4919Z" stroke="white" stroke-width="4" stroke-linejoin="round"/>
<path d="M64.3664 43.1369C64.3534 42.967 64.3066 42.8017 64.2289 42.6513C64.1512 42.5008 64.0443 42.3685 63.9148 42.2626C63.7853 42.1567 63.6361 42.0794 63.4763 42.0356C63.3166 41.9918 63.1498 41.9824 62.9864 42.008C60.3734 42.4379 54.2474 44.9309 49.9949 44.9309C45.7424 44.9309 39.6164 42.4379 37.0034 42.008C36.84 41.9821 36.6733 41.9913 36.5135 42.0349C36.3538 42.0786 36.2045 42.1557 36.075 42.2615C35.9455 42.3673 35.8385 42.4995 35.7608 42.6499C35.6831 42.8003 35.6363 42.9655 35.6234 43.1354C35.4104 45.5046 34.9949 51.8128 34.9949 52.7686C34.9949 54.0522 40.2029 56.9937 43.9949 56.9937C47.6729 56.9937 48.4199 52.7686 49.9949 52.7686C51.5699 52.7686 52.3169 56.9937 55.9949 56.9937C59.7869 56.9937 64.9949 54.0522 64.9949 52.7686C64.9949 51.8128 64.5794 45.5046 64.3664 43.1369ZM46.4849 50.6839C45.9554 51.1757 44.4824 52.3387 42.6884 51.9752C40.8944 51.6118 39.8099 49.9292 39.4394 49.2565C39.3955 49.1789 39.3782 49.0885 39.3901 48.9996C39.4021 48.9107 39.4427 48.8285 39.5054 48.7662C40.0349 48.2744 41.5079 47.1115 43.3034 47.4749C45.0974 47.8383 46.1819 49.5209 46.5524 50.1937C46.5958 50.2714 46.6127 50.3619 46.6005 50.4508C46.5883 50.5396 46.5476 50.6217 46.4849 50.6839ZM60.5504 49.2565C60.1814 49.9307 59.0969 51.6118 57.3014 51.9752C55.5074 52.3387 54.0329 51.1757 53.5049 50.6839C53.4422 50.6217 53.4015 50.5396 53.3892 50.4508C53.377 50.3619 53.394 50.2714 53.4374 50.1937C53.8064 49.5194 54.8909 47.8383 56.6864 47.4749C58.4804 47.1115 59.9549 48.2744 60.4829 48.7662C60.546 48.8282 60.5871 48.9103 60.5993 48.9992C60.6116 49.0882 60.5943 49.1789 60.5504 49.2565Z" fill="white"/>
</svg>
