<svg width="100" height="100" viewBox="0 0 100 100" fill="none" xmlns="http://www.w3.org/2000/svg">
<circle cx="49.9995" cy="49.9937" r="49" stroke="#FE9E45" stroke-width="2"/>
<path d="M47.7828 46.4743C54.7201 46.4743 60.3439 40.8505 60.3439 33.9132C60.3439 26.9759 54.7201 21.3521 47.7828 21.3521C40.8455 21.3521 35.2217 26.9759 35.2217 33.9132C35.2217 40.8505 40.8455 46.4743 47.7828 46.4743Z" fill="white"/>
<path d="M55.8328 69.4382H69.4439V72.1605H55.8328V69.4382Z" fill="white"/>
<path d="M44.1662 73.327V79.1603C44.1662 79.676 44.371 80.1706 44.7357 80.5352C45.1003 80.8999 45.5949 81.1047 46.1106 81.1047H79.1662C79.6819 81.1047 80.1764 80.8999 80.5411 80.5352C80.9057 80.1706 81.1106 79.676 81.1106 79.1603V59.7158C81.1106 59.2001 80.9057 58.7056 80.5411 58.3409C80.1764 57.9763 79.6819 57.7714 79.1662 57.7714H65.555V54.9131C65.555 54.3974 65.3502 53.9028 64.9855 53.5381C64.6209 53.1735 64.1263 52.9686 63.6106 52.9686C63.0949 52.9686 62.6003 53.1735 62.2357 53.5381C61.871 53.9028 61.6662 54.3974 61.6662 54.9131V57.7714H57.7773V50.8103C54.4731 50.2706 51.1308 49.9975 47.7828 49.9936C40.3994 49.9622 33.0987 51.5485 26.3939 54.6408C25.2904 55.1616 24.3595 55.988 23.7115 57.0219C23.0636 58.0559 22.7258 59.254 22.7384 60.4742V73.327H44.1662ZM77.2217 77.2158H48.055V61.6603H61.6662V62.477C61.6662 62.9927 61.871 63.4872 62.2357 63.8519C62.6003 64.2165 63.0949 64.4214 63.6106 64.4214C64.1263 64.4214 64.6209 64.2165 64.9855 63.8519C65.3502 63.4872 65.555 62.9927 65.555 62.477V61.6603H77.2217V77.2158Z" fill="white"/>
</svg>
