<svg width="106" height="106" viewBox="0 0 106 106" fill="none" xmlns="http://www.w3.org/2000/svg">
<path d="M104.947 1.96728C104.904 1.75999 104.803 1.5692 104.656 1.41727C104.508 1.26534 104.321 1.15857 104.115 1.10947C90.3874 -2.24678 58.6695 9.71338 41.4851 26.8907C38.4201 29.9309 35.6259 33.2325 33.1343 36.7579C27.8351 36.2892 22.5359 36.6806 18.0195 38.6493C5.27649 44.2579 1.56634 58.8923 0.532744 65.1876C0.474116 65.5322 0.496231 65.8856 0.597346 66.2202C0.698462 66.5548 0.875822 66.8613 1.11548 67.1158C1.35513 67.3702 1.65055 67.5655 1.97849 67.6864C2.30643 67.8074 2.65795 67.8505 3.0054 67.8126L23.4687 65.5556C23.4833 67.0984 23.5764 68.6394 23.7476 70.1728C23.8506 71.2376 24.3232 72.2327 25.0835 72.9853L33.0077 80.8907C33.761 81.65 34.7558 82.1225 35.8202 82.2267C37.345 82.3972 38.8774 82.4903 40.4116 82.5056L38.1663 102.943C38.1289 103.29 38.1724 103.642 38.2935 103.969C38.4146 104.297 38.6099 104.592 38.8642 104.832C39.1185 105.071 39.4249 105.249 39.7592 105.35C40.0936 105.451 40.4468 105.474 40.7913 105.416C47.0749 104.408 61.7351 100.698 67.3109 87.9548C69.2796 83.4384 69.6827 78.1649 69.228 72.8915C72.762 70.3997 76.0722 67.6048 79.121 64.5384C96.3593 47.3868 108.251 16.3767 104.947 1.96728ZM61.9226 44.0774C60.3485 42.5044 59.2763 40.4998 58.8416 38.3174C58.407 36.1349 58.6293 33.8725 59.4806 31.8164C60.3318 29.7603 61.7738 28.0029 63.624 26.7664C65.4742 25.5299 67.6496 24.8699 69.8749 24.8699C72.1003 24.8699 74.2756 25.5299 76.1259 26.7664C77.9761 28.0029 79.418 29.7603 80.2693 31.8164C81.1205 33.8725 81.3429 36.1349 80.9082 38.3174C80.4735 40.4998 79.4013 42.5044 77.8273 44.0774C76.7835 45.1227 75.5439 45.952 74.1793 46.5177C72.8148 47.0835 71.3521 47.3747 69.8749 47.3747C68.3977 47.3747 66.935 47.0835 65.5705 46.5177C64.206 45.952 62.9664 45.1227 61.9226 44.0774Z" fill="#FE9E45"/>
</svg>
